<?xml version="1.0" encoding="utf-8"?>
<!-- Generator: Adobe Illustrator 15.1.0, SVG Export Plug-In . SVG Version: 6.00 Build 0)  -->
<!DOCTYPE svg PUBLIC "-//W3C//DTD SVG 1.1//EN" "http://www.w3.org/Graphics/SVG/1.1/DTD/svg11.dtd">
<svg version="1.1" id="Ebene_1" xmlns="http://www.w3.org/2000/svg" xmlns:xlink="http://www.w3.org/1999/xlink" x="0px" y="0px"
	 width="100px" height="100px" viewBox="0 0 100 100" enable-background="new 0 0 100 100" xml:space="preserve">
<g>
	<g>
		<path fill="#1A171B" d="M34.326,69.086h-1.395l0.086-3.323l-0.086-7.718h1.412l-0.088,7.597L34.326,69.086z"/>
		<path fill="#1A171B" d="M46.625,69.086h-1.447l-5.701-8.836h-0.104l-0.018,5.201l0.051,3.635h-1.291l0.086-3.271l-0.051-7.77
			h1.445l5.686,8.837H45.4l-0.016-8.767l1.309-0.104l-0.104,7.837L46.625,69.086z"/>
		<path fill="#1A171B" d="M51.791,63.076l1.861,0.035l1.791-0.053l0.104,0.139l-0.121,1.051l-1.912-0.053l-1.738,0.018l-0.018,1.43
			l0.068,3.445h-1.395l0.086-3.324l-0.086-7.717h5.873l0.104,0.138l-0.121,1.103l-2.531-0.086l-1.93,0.035L51.791,63.076z"/>
		<path fill="#1A171B" d="M65.855,59.338c0.811,0.93,1.215,2.268,1.215,4.014c0,1.871-0.432,3.318-1.293,4.34
			c-0.859,1.022-2.084,1.533-3.668,1.533c-1.492,0-2.646-0.482-3.463-1.445c-0.814-0.966-1.223-2.338-1.223-4.117
			c0-1.838,0.428-3.25,1.283-4.237s2.082-1.481,3.678-1.481C63.889,57.943,65.045,58.408,65.855,59.338z M58.836,63.49
			c0,3.055,1.119,4.58,3.359,4.58c2.297,0,3.445-1.492,3.445-4.479c0-1.526-0.279-2.661-0.838-3.401
			c-0.557-0.739-1.402-1.11-2.541-1.11C59.979,59.078,58.836,60.55,58.836,63.49z"/>
	</g>
	<path fill="#1D1D1B" d="M66.25,30.775h-4.502c-0.482,0-0.875-0.392-0.875-0.873c0-0.482,0.393-0.875,0.875-0.875h4.502
		c0.482,0,0.873,0.393,0.873,0.875C67.123,30.384,66.732,30.775,66.25,30.775z"/>
	<g>
		<path fill="#1D1D1B" d="M53.848,22.963c-0.482,0-0.875-0.393-0.875-0.874v-4.503c0-0.482,0.393-0.875,0.875-0.875
			c0.48,0,0.873,0.393,0.873,0.875v4.503C54.721,22.572,54.328,22.963,53.848,22.963z"/>
	</g>
	<path fill="#1D1D1B" d="M59.402,25.384c-0.225,0-0.447-0.085-0.619-0.257c-0.34-0.34-0.34-0.895,0-1.235l3.184-3.187
		c0.344-0.342,0.896-0.342,1.236,0c0.342,0.342,0.342,0.896,0,1.236l-3.184,3.186C59.85,25.299,59.625,25.384,59.402,25.384z"/>
	<path fill="#1D1D1B" d="M48.293,25.447c-0.225,0-0.447-0.086-0.619-0.256l-3.186-3.186c-0.34-0.342-0.34-0.895,0-1.236
		c0.342-0.342,0.895-0.342,1.236,0l3.186,3.186c0.342,0.342,0.342,0.895,0,1.236C48.74,25.361,48.518,25.447,48.293,25.447z"/>
	<path fill="#1D1D1B" d="M61.98,43.949l-4.119-4.058c-0.344-0.338-0.35-0.892-0.012-1.235c0.338-0.345,0.893-0.352,1.236-0.013
		l2.822,2.786l1.768-1.939c0.324-0.356,0.879-0.383,1.234-0.059c0.357,0.325,0.383,0.878,0.059,1.234L61.98,43.949z"/>
	<path d="M39.342,42.521c0.312,0.248,0.469,0.57,0.469,0.969c0,0.267-0.076,0.524-0.225,0.775c-0.15,0.251-0.387,0.464-0.703,0.639
		v0.049c0.711,0.203,1.064,0.638,1.064,1.301c0,0.359-0.104,0.678-0.307,0.957c-0.207,0.279-0.496,0.496-0.867,0.648
		c-0.371,0.153-0.797,0.229-1.277,0.229c-0.346,0-0.697-0.03-1.057-0.096l-0.066-1.008l0.086-0.087
		c0.387,0.138,0.748,0.204,1.086,0.204c0.363,0,0.648-0.07,0.854-0.215c0.207-0.145,0.309-0.344,0.309-0.604
		c0-0.443-0.297-0.676-0.889-0.693h-0.684l-0.07-0.09l0.039-0.889l0.432-0.02c0.246-0.006,0.469-0.086,0.664-0.239
		c0.195-0.151,0.293-0.346,0.293-0.581c0-0.177-0.059-0.312-0.176-0.41c-0.117-0.099-0.281-0.146-0.488-0.146
		c-0.338,0-0.725,0.152-1.152,0.46h-0.137l-0.195-0.947c0.561-0.385,1.148-0.577,1.768-0.577
		C38.619,42.15,39.027,42.275,39.342,42.521"/>
	<path fill="#1D1D1B" d="M61.971,34.254c-1.078,0-2.107,0.214-3.053,0.591c-0.082-0.247-0.189-0.481-0.299-0.715
		c0.82-1.036,1.318-2.339,1.318-3.761c0-3.357-2.732-6.09-6.092-6.09c-2.66,0-4.914,1.721-5.74,4.104
		c-0.154-0.012-0.309-0.023-0.467-0.023c-1.029,0-2.004,0.241-2.852,0.668h-3.826c-0.482,0-0.875,0.393-0.875,0.875
		c0,0.481,0.393,0.873,0.875,0.873h1.758c-0.369,0.51-0.648,1.077-0.812,1.692c-1.961,0.313-3.525,1.823-3.957,3.741h-3.154
		c-0.002-0.281-0.002-0.531-0.004-0.631c0.008-0.352-0.24-0.651-0.559-0.672c-0.314-0.019-0.584,0.241-0.619,0.588l-0.01,0.238
		c0,0.065,0,0.254,0,0.477h-1.77c-0.832,0-2.066,0.551-2.066,2.066v1.295v1.752v7.28c0,0.831,0.551,2.065,2.066,2.065h12.619
		c0.83,0,2.066-0.551,2.066-2.065v-4.075c1.367-0.043,2.629-0.68,3.471-1.729c0.857,0.397,1.789,0.604,2.736,0.604
		c0.348,0,0.686-0.031,1.018-0.084c0.404,4.182,3.938,7.463,8.225,7.463c4.557,0,8.264-3.707,8.264-8.264
		C70.234,37.961,66.525,34.254,61.971,34.254z M53.848,26.027c2.395,0,4.342,1.948,4.342,4.344c0,0.797-0.229,1.537-0.607,2.178
		c-1.189-1.35-2.914-2.213-4.852-2.213c-0.162,0-0.33,0.008-0.504,0.021c-0.643-0.724-1.471-1.268-2.398-1.605
		C50.473,27.158,52.025,26.027,53.848,26.027z M44.773,48.604c0,0.135,0,0.303-0.33,0.318H31.836c-0.135,0-0.305,0-0.316-0.318
		v-7.281h13.256v7.281H44.773z M44.773,39.57H31.518v-1.293c0-0.137,0-0.307,0.318-0.32h1.771l0.008,0.216
		c0.035,0.347,0.305,0.604,0.619,0.587c0.318-0.02,0.564-0.32,0.559-0.671c0-0.042,0-0.087,0-0.132h6.535l0.012,0.216
		c0.033,0.347,0.303,0.604,0.617,0.587c0.316-0.02,0.564-0.32,0.561-0.671c0-0.042,0-0.087,0-0.132h1.938
		c0.137,0,0.307,0,0.318,0.32V39.57L44.773,39.57z M52.73,41.724c-0.904,0-1.793-0.256-2.566-0.739l-0.76-0.476l-0.424,0.789
		c-0.494,0.916-1.43,1.485-2.459,1.538v-1.514V39.57v-1.293c0-0.832-0.551-2.068-2.066-2.068h-1.938c0-0.28,0-0.53-0.002-0.631
		c0.006-0.351-0.242-0.65-0.561-0.672c-0.312-0.018-0.582,0.242-0.617,0.59l-0.012,0.236c0,0.066,0,0.256,0,0.477h-1.631
		c0.432-1.213,1.576-2.102,2.93-2.12l0.732-0.011l0.088-0.729c0.229-1.888,2.031-3.31,4.193-3.31c1.438,0,2.766,0.638,3.549,1.705
		l0.301,0.41l0.502-0.078c0.242-0.035,0.488-0.062,0.738-0.062c2.25,0,4.129,1.543,4.674,3.623
		c-1.988,1.323-3.369,3.481-3.645,5.972C53.428,41.684,53.084,41.724,52.73,41.724z M61.971,49.035
		c-3.594,0-6.518-2.924-6.518-6.517c0-3.594,2.924-6.519,6.518-6.519s6.516,2.925,6.516,6.519
		C68.486,46.113,65.564,49.035,61.971,49.035z"/>
</g>
</svg>
