<?xml version="1.0" encoding="utf-8"?>
<!-- Generator: Adobe Illustrator 15.1.0, SVG Export Plug-In . SVG Version: 6.00 Build 0)  -->
<!DOCTYPE svg PUBLIC "-//W3C//DTD SVG 1.1//EN" "http://www.w3.org/Graphics/SVG/1.1/DTD/svg11.dtd">
<svg version="1.1" id="Ebene_1" xmlns="http://www.w3.org/2000/svg" xmlns:xlink="http://www.w3.org/1999/xlink" x="0px" y="0px"
	 width="100px" height="100px" viewBox="0 0 100 100" enable-background="new 0 0 100 100" xml:space="preserve">
<g>
	<g>
		<path fill="#1A171B" d="M37.185,69.025h-1.447l-5.701-8.837h-0.104l-0.016,5.201l0.051,3.636h-1.291l0.086-3.272l-0.053-7.769
			h1.447l5.684,8.836h0.121l-0.018-8.767l1.309-0.104l-0.104,7.837L37.185,69.025z"/>
		<path fill="#1A171B" d="M47.192,69.025h-6.201l0.086-3.324l-0.086-7.717h6.219l0.068,0.138l-0.105,1.068l-2.602-0.053
			l-2.188,0.035l-0.033,3.616l2.066,0.034l1.826-0.053l0.104,0.121l-0.121,1.067l-1.93-0.034l-1.963,0.019l-0.018,1.636l0.053,2.291
			l2.188,0.018l2.652-0.068l0.086,0.138L47.192,69.025z"/>
		<path fill="#1A171B" d="M58.112,69.025l-2.152-6.407h-0.121l-2.273,6.407h-1.43l-3.514-11.041h1.377l0.189,1.067l2.688,8.439
			h0.121l2.377-6.719l-0.93-2.789h1.412l0.258,1.188l2.721,8.319h0.104l2.998-8.371l0.258-1.138h1.309l-3.961,11.041h-1.43V69.025z"
			/>
		<path fill="#1A171B" d="M70.997,58.415l-0.225,1.326L70.53,59.81c-0.688-0.527-1.412-0.793-2.17-0.793
			c-0.424,0-0.795,0.088-1.109,0.26c-0.316,0.172-0.559,0.396-0.725,0.672s-0.25,0.562-0.25,0.861c0,0.31,0.096,0.582,0.285,0.816
			c0.188,0.236,0.428,0.439,0.715,0.612c0.287,0.172,0.678,0.379,1.17,0.62c0.621,0.287,1.121,0.554,1.5,0.801
			s0.703,0.561,0.973,0.938c0.27,0.379,0.404,0.84,0.404,1.379c0,0.574-0.154,1.103-0.465,1.584
			c-0.311,0.482-0.746,0.867-1.309,1.154c-0.564,0.287-1.205,0.43-1.932,0.43c-1.057,0-2.043-0.258-2.963-0.773l0.172-1.413
			l0.189-0.086c0.402,0.392,0.848,0.681,1.336,0.87s0.955,0.284,1.404,0.284c0.436,0,0.822-0.087,1.162-0.259
			c0.338-0.172,0.596-0.401,0.775-0.688c0.178-0.287,0.266-0.592,0.266-0.913c0-0.482-0.184-0.869-0.551-1.162
			s-0.924-0.611-1.67-0.955c-0.609-0.3-1.098-0.566-1.465-0.803c-0.367-0.234-0.684-0.539-0.947-0.912s-0.396-0.83-0.396-1.369
			c0-0.562,0.152-1.08,0.457-1.551s0.729-0.841,1.275-1.111c0.545-0.27,1.168-0.404,1.869-0.404
			C69.325,57.897,70.146,58.07,70.997,58.415z"/>
	</g>
	<g>
		<path fill="none" stroke="#1D1D1B" stroke-width="1.68" stroke-miterlimit="10" d="M42.169,25.29c0,0-2.656,0-2.656,2.656v15.511
			c0,0,0,2.657,2.656,2.657h15.66c0,0,2.658,0,2.658-2.657V27.946c0,0,0-2.656-2.658-2.656H42.169z"/>
		<path fill="none" stroke="#1D1D1B" stroke-width="1.68" stroke-linecap="round" stroke-miterlimit="10" d="M56.157,41.86
			c0-6.801-5.516-12.317-12.316-12.317"/>
		<path fill="none" stroke="#1D1D1B" stroke-width="1.68" stroke-linecap="round" stroke-miterlimit="10" d="M51.183,41.86
			c0-4.055-3.285-7.342-7.344-7.342"/>
		<path fill="#1D1D1B" d="M44.739,39.149c1,0,1.814,0.812,1.814,1.814c0,1-0.814,1.812-1.814,1.812
			c-1.004,0-1.812-0.812-1.812-1.812C42.927,39.962,43.735,39.149,44.739,39.149"/>
	</g>
</g>
</svg>
