<?xml version="1.0" encoding="UTF-8" standalone="no"?>
<svg width="21px" height="20px" viewBox="0 0 21 20" version="1.1" xmlns="http://www.w3.org/2000/svg" xmlns:xlink="http://www.w3.org/1999/xlink">
    <!-- Generator: Sketch 3.6.1 (26313) - http://www.bohemiancoding.com/sketch -->
    <title>rss</title>
    <desc>Created with Sketch.</desc>
    <defs></defs>
    <g id="Page-1" stroke="none" stroke-width="1" fill="none" fill-rule="evenodd">
        <g id="Desktop-HD" transform="translate(-555.000000, -453.000000)" fill="#FFFFFF">
            <g id="Modul-3" transform="translate(555.000000, 310.000000)">
                <g id="News" transform="translate(0.000000, 50.000000)">
                    <g id="News-3" transform="translate(0.000000, 93.000000)">
                        <g id="rss">
                            <path d="M5.27827648,17.3788151 C5.27827648,18.8509874 4.05745063,20 2.62118492,20 C1.18491921,20 0,18.8509874 0,17.3788151 C0,15.9425494 1.18491921,14.7576302 2.62118492,14.7576302 C4.05745063,14.7576302 5.27827648,15.9425494 5.27827648,17.3788151 L5.27827648,17.3788151 Z M12.7827648,19.8204668 L9.19210054,19.8204668 C9.19210054,14.8294434 5.17055655,10.556553 0.143626571,10.556553 L0.143626571,7.1454219 C6.78635548,7.1454219 12.7827648,11.8491921 12.7827648,19.8204668 L12.7827648,19.8204668 Z M20.2154399,19.8204668 L16.3016158,19.8204668 C16.3016158,11.2028725 8.79712747,3.6983842 0.143626571,3.6983842 L0.143626571,0 C10.7719928,0 20.2154399,8.07899461 20.2154399,19.8204668 L20.2154399,19.8204668 Z" id="Shape"></path>
                        </g>
                    </g>
                </g>
            </g>
        </g>
    </g>
</svg>