<?xml version="1.0" encoding="UTF-8" standalone="no"?>
<svg width="25px" height="20px" viewBox="0 0 25 20" version="1.1" xmlns="http://www.w3.org/2000/svg" xmlns:xlink="http://www.w3.org/1999/xlink">
    <!-- Generator: Sketch 3.6.1 (26313) - http://www.bohemiancoding.com/sketch -->
    <title>svg2</title>
    <desc>Created with Sketch.</desc>
    <defs>
        <path id="path-1" d="M0,0.000213328 L24.3892642,0.000213328 L24.3892642,19.7490529 L0,19.7490529 L0,0.000213328 Z"></path>
    </defs>
    <g id="Page-1" stroke="none" stroke-width="1" fill="none" fill-rule="evenodd">
        <g id="Desktop-HD" transform="translate(-555.000000, -360.000000)">
            <g id="Modul-3" transform="translate(555.000000, 310.000000)">
                <g id="News" transform="translate(0.000000, 50.000000)">
                    <g id="News-1">
                        <g id="Twitter_bird_logo_2012">
                            <g id="svg2">
                                <g id="g10" transform="translate(12.244898, 9.978227) scale(1, -1) translate(-12.244898, -9.978227) translate(0.000000, 0.044893)">
                                    <g id="g12" transform="translate(0.000000, -0.000000)">
                                        <g id="g14">
                                            <g id="g16-Clipped" transform="translate(0.000000, -0.000000)">
                                                <mask id="mask-2" fill="white">
                                                    <use xlink:href="#path-1"></use>
                                                </mask>
                                                <g id="path18"></g>
                                                <g id="g16" mask="url(#mask-2)" fill="#FFFFFF">
                                                    <g transform="translate(-0.017843, -0.000000)" id="path22">
                                                        <path d="M24.407107,17.4109425 C23.5101516,17.014348 22.5455722,16.7463013 21.533531,16.6255399 C22.5664482,17.2428223 23.3595587,18.2197934 23.7331861,19.3836932 C22.7664655,18.8121519 21.6959001,18.3975845 20.5555695,18.1741234 C19.6432694,19.1428103 18.3427108,19.7483063 16.9035141,19.7483063 C14.1398495,19.7483063 11.8998698,17.5163621 11.8998698,14.7630087 C11.8998698,14.3721207 11.9437094,13.991508 12.0293725,13.6268593 C7.87058276,13.8344986 4.1835555,15.8198712 1.71554538,18.8357958 C1.28480339,18.0998142 1.03807375,17.2435333 1.03807375,16.3297251 C1.03807375,14.5998483 1.92109394,13.074162 3.26413608,12.1797844 C2.4439224,12.2053304 1.67224101,12.4296981 0.997570689,12.8033777 C0.99680345,12.7824004 0.99680345,12.7616365 0.99680345,12.7408015 C0.99680345,10.3248619 2.72184117,8.31033446 5.01071001,7.85203481 C4.59119112,7.7380821 4.14924387,7.67781694 3.692844,7.67781694 C3.37008637,7.67781694 3.05714226,7.70823396 2.75108545,7.76670361 C3.38826814,5.7861309 5.23586776,4.34456694 7.42588773,4.30421239 C5.7119482,2.96682361 3.55472322,2.1702213 1.21018498,2.1702213 C0.806563977,2.1702213 0.407956791,2.19390071 0.0161833804,2.23973067 C2.23154006,0.825223813 4.86138398,0.000142218667 7.68749823,0.000142218667 C16.891149,0.000142218667 21.9235201,7.59657453 21.9235201,14.1852098 C21.9235201,14.4012577 21.9185242,14.6158302 21.9094244,14.8296381 C22.8866722,15.533105 23.7349168,16.4109319 24.4061613,17.4109069"></path>
                                                    </g>
                                                </g>
                                            </g>
                                        </g>
                                    </g>
                                </g>
                            </g>
                        </g>
                    </g>
                </g>
            </g>
        </g>
    </g>
</svg>