<?xml version="1.0" encoding="utf-8"?>
<!-- Generator: Adobe Illustrator 15.1.0, SVG Export Plug-In . SVG Version: 6.00 Build 0)  -->
<!DOCTYPE svg PUBLIC "-//W3C//DTD SVG 1.1//EN" "http://www.w3.org/Graphics/SVG/1.1/DTD/svg11.dtd">
<svg version="1.1" id="Ebene_1" xmlns="http://www.w3.org/2000/svg" xmlns:xlink="http://www.w3.org/1999/xlink" x="0px" y="0px"
	 width="100px" height="100px" viewBox="0 0 100 100" enable-background="new 0 0 100 100" xml:space="preserve">
<g>
	<path fill="#1A171B" d="M12.674,69.052h-1.395l0.086-3.324l-0.086-7.717h1.412l-0.086,7.596L12.674,69.052z M19.1,68.759
		l-0.018,0.173c-0.355,0.104-0.793,0.193-1.309,0.275l-0.156-0.086c-1.859-2.113-3.443-4.061-4.754-5.84v-0.104l3.688-4.202
		l0.672-0.965h1.566l-4.461,5.186C15.9,65.228,17.492,67.082,19.1,68.759z"/>
	<path fill="#1A171B" d="M27.746,69.052l-0.258-1.103l-0.621-1.896l-2.48-0.052l-2.238,0.052l-0.672,1.825l-0.275,1.172h-1.379
		l4.049-11.041h1.604l3.686,11.041L27.746,69.052L27.746,69.052z M24.697,59.44h-0.121l-1.998,5.443l1.93,0.034l1.98-0.034
		L24.697,59.44z"/>
	<path fill="#1A171B" d="M37.133,69.052h-5.443l0.086-3.324l-0.086-7.717h1.412l-0.086,7.596l0.053,2.291h4.082l0.104,0.121
		L37.133,69.052z"/>
	<path fill="#1A171B" d="M45.711,69.052H39.51l0.086-3.324l-0.086-7.717h6.219l0.068,0.138l-0.104,1.068l-2.602-0.053l-2.189,0.035
		l-0.033,3.616l2.066,0.034l1.826-0.053l0.104,0.121l-0.121,1.067l-1.93-0.034l-1.963,0.019l-0.018,1.636l0.053,2.291l2.188,0.018
		l2.652-0.068l0.086,0.138L45.711,69.052z"/>
	<path fill="#1A171B" d="M56.906,69.052h-1.447l-5.701-8.837h-0.104l-0.016,5.201l0.051,3.636h-1.291l0.086-3.272l-0.053-7.769
		h1.445l5.686,8.836h0.121l-0.02-8.767l1.311-0.104l-0.105,7.837L56.906,69.052z"/>
	<path fill="#1A171B" d="M68.377,59.285c0.84,0.896,1.258,2.183,1.258,3.858c0,1.94-0.453,3.429-1.361,4.461
		c-0.906,1.034-2.209,1.552-3.908,1.552c-1.127,0-2.32-0.035-3.584-0.104h-0.018l0.088-3.324l-0.088-7.717h0.018l3.98-0.069
		C66.334,57.941,67.539,58.39,68.377,59.285z M67.283,66.855c0.627-0.764,0.939-1.902,0.939-3.419c0-2.894-1.189-4.341-3.564-4.341
		c-0.725,0-1.557,0.023-2.498,0.068l-0.07,6.441l0.053,2.291C62.945,67.965,63.762,68,64.588,68
		C65.76,68,66.658,67.619,67.283,66.855z"/>
	<path fill="#1A171B" d="M78.678,69.052h-6.201l0.088-3.324l-0.088-7.717h6.219l0.068,0.138l-0.104,1.068l-2.6-0.053l-2.189,0.035
		l-0.033,3.616l2.064,0.034l1.826-0.053l0.104,0.121l-0.119,1.067l-1.93-0.034l-1.965,0.019l-0.018,1.636l0.053,2.291l2.188,0.018
		l2.652-0.068l0.086,0.138L78.678,69.052z"/>
	<path fill="#1A171B" d="M88.721,68.725l-0.018,0.172c-0.414,0.161-0.838,0.266-1.275,0.311l-0.189-0.121
		c-0.941-1.412-1.785-2.789-2.531-4.133h-2.016v0.653l0.068,3.445h-1.395l0.086-3.324l-0.086-7.717l3.375-0.019
		c1.08,0,1.916,0.273,2.508,0.818c0.59,0.546,0.887,1.324,0.887,2.334c0,0.758-0.199,1.438-0.594,2.041
		c-0.396,0.604-0.957,1.07-1.68,1.404C86.619,65.843,87.572,67.221,88.721,68.725z M84.775,63.832
		c1.285-0.367,1.93-1.224,1.93-2.565c0-1.367-0.758-2.079-2.273-2.136l-1.672,0.051l-0.051,4.6L84.775,63.832z"/>
</g>
<g>
	<path fill="#1A171B" d="M25.176,76.578c0.525,0.562,0.791,1.369,0.791,2.42c0,1.217-0.285,2.149-0.854,2.797
		c-0.57,0.647-1.387,0.973-2.453,0.973c-0.707,0-1.455-0.021-2.246-0.064h-0.01l0.053-2.086l-0.053-4.838h0.01l2.494-0.043
		C23.895,75.736,24.65,76.017,25.176,76.578z M24.49,81.324c0.393-0.478,0.59-1.193,0.59-2.144c0-1.813-0.746-2.722-2.236-2.722
		c-0.453,0-0.977,0.015-1.566,0.043l-0.041,4.039l0.031,1.438c0.504,0.043,1.016,0.062,1.535,0.062
		C23.535,82.041,24.098,81.804,24.49,81.324z"/>
	<path fill="#1A171B" d="M31.656,82.703H27.77l0.055-2.086l-0.055-4.838h3.898l0.043,0.088l-0.064,0.668l-1.631-0.031l-1.371,0.021
		l-0.023,2.269l1.299,0.021l1.145-0.032l0.064,0.075l-0.076,0.67l-1.209-0.021l-1.232,0.011l-0.01,1.026l0.033,1.437l1.371,0.011
		l1.662-0.043l0.055,0.086L31.656,82.703z"/>
	<path fill="#1A171B" d="M39.432,82.703l-0.162-2.106l-0.367-3.445h-0.074l-1.922,4.753h-0.715l-1.824-4.753h-0.086l-0.367,3.38
		l-0.184,2.172h-0.732l0.721-6.924h0.982l0.357,1.059l1.502,3.943h0.064l1.574-4.008l0.357-0.994h0.973l0.682,6.924H39.432
		L39.432,82.703z"/>
	<path fill="#1A171B" d="M47.598,82.703h-0.906l-3.576-5.541h-0.062l-0.012,3.262l0.031,2.279h-0.811l0.055-2.054l-0.033-4.87h0.908
		l3.564,5.541h0.076l-0.012-5.498l0.82-0.064l-0.064,4.914L47.598,82.703z"/>
	<path fill="#1A171B" d="M54.1,82.703l-0.152-0.691l-0.389-1.188l-1.564-0.033l-1.404,0.033l-0.422,1.144l-0.172,0.735h-0.863
		l2.549-6.924h1.004l2.312,6.924H54.1z M50.926,74.537c-0.08-0.086-0.121-0.201-0.121-0.346s0.045-0.261,0.131-0.352
		c0.086-0.09,0.205-0.135,0.357-0.135c0.143,0,0.254,0.039,0.334,0.117c0.078,0.08,0.119,0.191,0.119,0.336
		c0,0.15-0.045,0.273-0.131,0.367s-0.205,0.141-0.355,0.141C51.115,74.666,51.004,74.623,50.926,74.537z M52.188,76.674h-0.074
		l-1.254,3.414l1.209,0.021l1.242-0.021L52.188,76.674z M52.619,74.537c-0.078-0.086-0.117-0.201-0.117-0.346
		s0.043-0.261,0.129-0.352c0.088-0.09,0.205-0.135,0.355-0.135c0.145,0,0.256,0.039,0.336,0.117c0.078,0.08,0.117,0.191,0.117,0.336
		c0,0.15-0.041,0.273-0.129,0.367c-0.086,0.094-0.205,0.141-0.355,0.141C52.811,74.666,52.697,74.623,52.619,74.537z"/>
	<path fill="#1A171B" d="M60.84,76.244l-0.174,0.789l-0.098,0.021c-0.482-0.402-1.037-0.604-1.664-0.604
		c-0.684,0-1.209,0.236-1.576,0.707c-0.367,0.473-0.551,1.162-0.551,2.068c0,0.915,0.184,1.613,0.551,2.096
		c0.367,0.483,0.887,0.723,1.557,0.723c0.662,0,1.264-0.219,1.803-0.657l0.107,0.055l-0.076,0.82
		c-0.625,0.346-1.264,0.519-1.91,0.519c-0.93,0-1.648-0.301-2.16-0.9c-0.512-0.603-0.766-1.461-0.766-2.576
		c0-1.145,0.266-2.027,0.797-2.646c0.533-0.619,1.291-0.928,2.27-0.928C59.676,75.726,60.307,75.897,60.84,76.244z"/>
	<path fill="#1A171B" d="M67.838,82.703h-0.877l0.064-2.086l-0.01-1.035l-1.943-0.033l-1.75,0.033l-0.01,0.961l0.041,2.16H62.48
		l0.053-2.086l-0.053-4.838h0.885l-0.031,3.047l1.812,0.03l1.859-0.03l-0.045-3.047h0.887l-0.043,4.764L67.838,82.703z"/>
	<path fill="#1A171B" d="M73.658,76.049l-0.141,0.832l-0.15,0.043c-0.434-0.331-0.887-0.497-1.361-0.497
		c-0.268,0-0.498,0.055-0.697,0.161c-0.197,0.107-0.348,0.248-0.453,0.422c-0.104,0.173-0.156,0.354-0.156,0.539
		c0,0.195,0.061,0.365,0.18,0.515c0.117,0.146,0.268,0.274,0.447,0.384c0.182,0.106,0.426,0.237,0.732,0.389
		c0.391,0.181,0.703,0.348,0.941,0.502c0.236,0.156,0.439,0.352,0.609,0.59c0.168,0.236,0.254,0.525,0.254,0.863
		c0,0.359-0.098,0.69-0.291,0.994c-0.195,0.303-0.469,0.543-0.82,0.723c-0.354,0.181-0.756,0.271-1.209,0.271
		c-0.664,0-1.283-0.162-1.859-0.486l0.107-0.887l0.119-0.054c0.252,0.245,0.531,0.427,0.838,0.546s0.6,0.178,0.881,0.178
		c0.271,0,0.516-0.054,0.727-0.162c0.213-0.106,0.375-0.252,0.488-0.432c0.109-0.18,0.166-0.371,0.166-0.572
		c0-0.303-0.113-0.545-0.344-0.729c-0.232-0.184-0.58-0.385-1.049-0.6c-0.383-0.188-0.688-0.355-0.92-0.504
		c-0.229-0.146-0.426-0.338-0.594-0.572c-0.164-0.232-0.248-0.521-0.248-0.857c0-0.354,0.096-0.678,0.287-0.973
		c0.189-0.295,0.457-0.527,0.801-0.695c0.34-0.17,0.73-0.254,1.17-0.254C72.611,75.726,73.127,75.832,73.658,76.049z"/>
	<path fill="#1A171B" d="M79.533,76.535l-1.209-0.064h-0.703l-0.031,4.072l0.031,2.16h-0.873l0.064-2.086l-0.055-4.146h-0.701
		l-1.232,0.064l-0.055-0.086l0.064-0.67h4.697l0.064,0.088L79.533,76.535z"/>
</g>
<g>
	<circle fill="#1D1D1B" cx="42.865" cy="42.297" r="1.091"/>
	<path fill="#1D1D1B" d="M46.684,43.388c0.604,0,1.092-0.488,1.092-1.09c0-0.604-0.488-1.092-1.092-1.092
		c-0.602,0-1.09,0.487-1.09,1.092C45.594,42.899,46.082,43.388,46.684,43.388z"/>
	<circle fill="#1D1D1B" cx="50.502" cy="42.297" r="1.091"/>
	<circle fill="#1D1D1B" cx="54.318" cy="42.297" r="1.091"/>
	<circle fill="#1D1D1B" cx="42.865" cy="38.48" r="1.091"/>
	<path fill="#1D1D1B" d="M46.684,39.571c0.604,0,1.092-0.488,1.092-1.092c0-0.602-0.488-1.09-1.092-1.09
		c-0.602,0-1.09,0.488-1.09,1.09S46.082,39.571,46.684,39.571z"/>
	<circle fill="#1D1D1B" cx="50.502" cy="38.48" r="1.091"/>
	<path fill="#1D1D1B" d="M59.91,25.146h-3.043c0-0.639-0.002-1.307-0.002-1.523c0.008-0.551-0.381-1.024-0.879-1.056
		c-0.494-0.028-0.916,0.38-0.971,0.923l-0.018,0.373c0,0.156,0,0.719,0,1.283H44.74c0-0.639,0-1.307-0.002-1.523
		c0.008-0.551-0.381-1.024-0.879-1.056c-0.496-0.028-0.916,0.38-0.971,0.923l-0.018,0.373c0,0.156,0,0.719,0,1.283h-2.777
		c-1.092,0-2.715,0.723-2.715,2.713v2.562v1.688v11.965c0,1.092,0.723,2.713,2.715,2.713h19.814c1.09,0,2.713-0.723,2.713-2.713
		V32.108v-1.688v-2.562C62.623,26.768,61.902,25.146,59.91,25.146z M60.943,44.073c0,0.877-0.65,1.023-1.039,1.033H40.094
		c-0.881,0-1.025-0.652-1.033-1.033V32.108h21.883V44.073z M39.061,30.421v-2.562c0-0.879,0.652-1.023,1.035-1.033h2.777
		c0,0.153,0,0.336,0,0.496l0.018,0.372c0.055,0.544,0.475,0.95,0.971,0.923c0.498-0.031,0.887-0.504,0.879-1.056
		c0.002-0.245,0.002-0.522,0.004-0.735H55c0,0.153,0,0.336,0,0.496l0.018,0.372c0.055,0.544,0.477,0.95,0.971,0.923
		c0.498-0.031,0.887-0.504,0.879-1.056c0.002-0.245,0.002-0.522,0.002-0.735h3.043c0.879,0,1.025,0.653,1.033,1.033v2.562H39.061z"
		/>
</g>
</svg>