<?xml version="1.0" encoding="utf-8"?>
<!-- Generator: Adobe Illustrator 15.1.0, SVG Export Plug-In . SVG Version: 6.00 Build 0)  -->
<!DOCTYPE svg PUBLIC "-//W3C//DTD SVG 1.1//EN" "http://www.w3.org/Graphics/SVG/1.1/DTD/svg11.dtd">
<svg version="1.1" id="Ebene_1" xmlns="http://www.w3.org/2000/svg" xmlns:xlink="http://www.w3.org/1999/xlink" x="0px" y="0px"
	 width="24.94px" height="24.94px" viewBox="0 0 24.94 24.94" enable-background="new 0 0 24.94 24.94" xml:space="preserve">
<g>
	<path fill="#FFFFFF" d="M19.615,14.629l0.086-0.968l-0.104-0.122H17.99l0.033-6.173h-1.261l-4.341,6.242v0.899l0.104,0.123
		l1.124-0.035h3.217l-0.036,2.887l0.088,0.104l1.056-0.087l0.067-0.12l-0.051-2.784h0.051L19.615,14.629z M13.632,13.539l3.13-4.512
		h0.104l0.019,4.512H13.632z"/>
	<path fill="#FFFFFF" d="M7.808,13.331l-2.594,3.251v0.882l0.087,0.068l0.709-0.034h4.27l1.919,0.068l0.173-1.142l-0.104-0.139
		l-1.591,0.104H7.012l-0.035-0.068l1.988-2.631c0.785-1.014,1.349-1.834,1.695-2.462c0.345-0.63,0.519-1.208,0.519-1.738
		c0-0.669-0.24-1.208-0.717-1.618C9.983,7.467,9.369,7.262,8.62,7.262c-1.186,0-2.287,0.519-3.302,1.556L5.56,9.89h0.156
		c0.795-0.957,1.666-1.435,2.612-1.435c0.472,0,0.84,0.127,1.106,0.381C9.7,9.088,9.832,9.412,9.832,9.804
		c0,0.404-0.152,0.855-0.458,1.357C9.068,11.663,8.545,12.386,7.808,13.331z"/>
	<path fill="#FFFFFF" d="M24.416,11.453H24.41v0.002l-0.006-0.002c-0.271,0-0.492,0.221-0.492,0.491v0.103v0.364v0.17
		c-0.084,6.25-5.188,11.307-11.456,11.307c-6.319,0-11.463-5.142-11.463-11.464c0-6.321,5.144-11.465,11.463-11.465
		c2.989,0,5.689,1.174,7.728,3.057h-2.146c-0.113-0.002-0.229,0.044-0.317,0.127c-0.093,0.088-0.148,0.207-0.149,0.325
		c-0.001,0.255,0.2,0.465,0.456,0.468h3.226l0.227-0.024l0.072-0.049v0l0.004-0.001c0.005-0.006,0.009-0.01,0.011-0.015
		c0.001-0.001,0.004-0.003,0.005-0.005c0.002-0.001,0.007-0.004,0.008-0.006c0.006-0.002,0.009-0.004,0.016-0.011l0.051-0.068
		c0.029-0.05,0.054-0.097,0.064-0.151l0.004-3.301c0.007-0.253-0.192-0.469-0.443-0.48c-0.121-0.002-0.243,0.046-0.334,0.133
		c-0.089,0.085-0.141,0.197-0.145,0.314v1.945c-2.208-2.011-5.122-3.252-8.336-3.252C5.589-0.035,0,5.554,0,12.423
		s5.589,12.458,12.457,12.458c6.784,0,12.309-5.454,12.444-12.206c0.002-0.015,0.009-0.027,0.009-0.042v-0.223v-0.364v-0.103
		C24.908,11.673,24.687,11.453,24.416,11.453z"/>
	<path fill="#FFFFFF" d="M24.098,9.237c-0.342,0-0.62,0.279-0.62,0.62c0,0.341,0.278,0.618,0.62,0.618
		c0.356-0.002,0.636-0.273,0.636-0.618C24.733,9.51,24.454,9.237,24.098,9.237z"/>
</g>
</svg>
