<?xml version="1.0" encoding="utf-8"?>
<!-- Generator: Adobe Illustrator 15.1.0, SVG Export Plug-In . SVG Version: 6.00 Build 0)  -->
<!DOCTYPE svg PUBLIC "-//W3C//DTD SVG 1.1//EN" "http://www.w3.org/Graphics/SVG/1.1/DTD/svg11.dtd">
<svg version="1.1" id="Ebene_1" xmlns="http://www.w3.org/2000/svg" xmlns:xlink="http://www.w3.org/1999/xlink" x="0px" y="0px"
	 width="100px" height="100px" viewBox="0 0 100 100" enable-background="new 0 0 100 100" xml:space="preserve">
<g>
	<path fill="#1A171B" d="M12.675,69.24H11.28l0.086-3.324l-0.086-7.717h1.412l-0.086,7.596L12.675,69.24z M19.101,68.947
		l-0.018,0.173c-0.357,0.103-0.793,0.194-1.311,0.275l-0.154-0.086c-1.859-2.113-3.445-4.06-4.754-5.84v-0.104l3.686-4.202
		l0.672-0.965h1.568l-4.461,5.185C15.901,65.416,17.491,67.271,19.101,68.947z"/>
	<path fill="#1A171B" d="M27.747,69.24l-0.26-1.103l-0.619-1.895l-2.48-0.052l-2.24,0.052l-0.672,1.826L21.2,69.24h-1.377
		l4.047-11.041h1.602l3.688,11.041H27.747z M24.698,59.629h-0.121l-1.998,5.443l1.93,0.034l1.98-0.034L24.698,59.629z"/>
	<path fill="#1A171B" d="M37.134,69.24H31.69l0.086-3.324l-0.086-7.717h1.412l-0.086,7.596l0.053,2.291h4.082l0.104,0.121
		L37.134,69.24z"/>
	<path fill="#1A171B" d="M45.712,69.24h-6.201l0.086-3.324l-0.086-7.717h6.217l0.07,0.138l-0.104,1.068l-2.602-0.052l-2.188,0.034
		l-0.035,3.617l2.068,0.034l1.826-0.052l0.102,0.121l-0.119,1.067l-1.93-0.034l-1.963,0.018l-0.018,1.636l0.051,2.291l2.188,0.018
		l2.652-0.069l0.088,0.138L45.712,69.24z"/>
	<path fill="#1A171B" d="M56.907,69.24H55.46l-5.701-8.836h-0.104l-0.018,5.201l0.053,3.635h-1.293l0.086-3.272l-0.051-7.769h1.447
		l5.684,8.836h0.121l-0.018-8.767l1.309-0.104l-0.104,7.837L56.907,69.24z"/>
	<path fill="#1A171B" d="M68.378,59.474c0.838,0.896,1.258,2.182,1.258,3.858c0,1.94-0.455,3.428-1.361,4.461
		c-0.908,1.034-2.211,1.551-3.91,1.551c-1.125,0-2.32-0.034-3.582-0.104h-0.018l0.086-3.324l-0.086-7.717h0.018l3.979-0.069
		C66.333,58.13,67.54,58.578,68.378,59.474z M67.284,67.044c0.625-0.764,0.939-1.903,0.939-3.419c0-2.894-1.189-4.341-3.566-4.341
		c-0.723,0-1.557,0.023-2.498,0.069l-0.068,6.441l0.051,2.291c0.805,0.069,1.619,0.104,2.447,0.104
		C65.759,68.189,66.657,67.808,67.284,67.044z"/>
	<path fill="#1A171B" d="M78.679,69.24h-6.201l0.086-3.324l-0.086-7.717h6.219l0.068,0.138l-0.104,1.068l-2.602-0.052l-2.188,0.034
		l-0.033,3.617l2.066,0.034l1.826-0.052l0.104,0.121l-0.121,1.067l-1.93-0.034l-1.963,0.018l-0.018,1.636l0.051,2.291l2.188,0.018
		l2.654-0.069l0.086,0.138L78.679,69.24z"/>
	<path fill="#1A171B" d="M88.72,68.913l-0.018,0.172c-0.412,0.161-0.838,0.265-1.273,0.311l-0.189-0.121
		c-0.941-1.412-1.787-2.79-2.533-4.134H82.69v0.654l0.07,3.445h-1.396l0.088-3.324l-0.088-7.717l3.377-0.018
		c1.08,0,1.914,0.273,2.506,0.818c0.592,0.546,0.887,1.324,0.887,2.334c0,0.758-0.197,1.438-0.594,2.041
		c-0.396,0.604-0.955,1.071-1.68,1.404C86.618,66.031,87.571,67.409,88.72,68.913z M84.776,64.021
		c1.285-0.367,1.928-1.224,1.928-2.566c0-1.367-0.758-2.079-2.273-2.136l-1.67,0.051l-0.053,4.6L84.776,64.021z"/>
</g>
<g>
	<circle fill="#1D1D1B" cx="42.365" cy="34.769" r="1.09"/>
	<circle fill="#1D1D1B" cx="46.182" cy="34.769" r="1.09"/>
	<circle fill="#1D1D1B" cx="50.001" cy="34.769" r="1.09"/>
	<circle fill="#1D1D1B" cx="53.817" cy="34.769" r="1.09"/>
	<circle fill="#1D1D1B" cx="57.635" cy="34.769" r="1.09"/>
</g>
<path fill="#1D1D1B" d="M59.907,25.252h-3.041c-0.001-0.639-0.002-1.307-0.003-1.523c0.008-0.551-0.381-1.025-0.878-1.056
	c-0.495-0.028-0.916,0.38-0.971,0.923l-0.018,0.373c0,0.156,0,0.718,0,1.283H44.74c0-0.639-0.001-1.307-0.003-1.523
	c0.009-0.551-0.38-1.025-0.878-1.056c-0.496-0.028-0.916,0.38-0.971,0.923l-0.017,0.373c0,0.156,0,0.718,0,1.283h-2.779
	c-1.091,0-2.714,0.723-2.714,2.713v2.562v1.688V44.18c0,1.091,0.723,2.713,2.714,2.713h19.814c1.091,0,2.714-0.723,2.714-2.713
	V32.215v-1.688v-2.562C62.621,26.874,61.898,25.252,59.907,25.252z M60.941,44.18c0,0.877-0.65,1.023-1.04,1.033H40.093
	c-0.88,0-1.025-0.653-1.034-1.033V32.215h21.883V44.18z M39.059,30.527v-2.562c0-0.879,0.653-1.024,1.034-1.033h2.779
	c0,0.153,0,0.336,0,0.495l0.017,0.373c0.055,0.544,0.475,0.95,0.971,0.922c0.498-0.03,0.887-0.503,0.878-1.055
	c0.002-0.245,0.003-0.523,0.004-0.735h10.256c0,0.153,0,0.336,0,0.495l0.018,0.373c0.055,0.544,0.476,0.95,0.971,0.922
	c0.497-0.03,0.886-0.503,0.878-1.055c0.002-0.245,0.002-0.523,0.003-0.735h3.041c0.88,0,1.025,0.653,1.034,1.033v2.562H39.059z"/>
<g>
	<path fill="#1A171B" d="M38.169,82.998l-1.351-4.018h-0.075l-1.426,4.018h-0.896l-2.203-6.923h0.864l0.119,0.67l1.685,5.292h0.075
		l1.49-4.212l-0.583-1.75h0.886l0.162,0.745l1.706,5.217h0.065l1.879-5.249l0.162-0.713h0.82l-2.483,6.923H38.169z"/>
	<path fill="#1A171B" d="M47.538,76.885c0.508,0.584,0.761,1.423,0.761,2.517c0,1.174-0.27,2.081-0.81,2.722
		s-1.307,0.961-2.301,0.961c-0.936,0-1.659-0.302-2.171-0.906c-0.511-0.605-0.767-1.466-0.767-2.582
		c0-1.151,0.269-2.037,0.805-2.656s1.305-0.929,2.306-0.929C46.305,76.011,47.03,76.302,47.538,76.885z M43.137,79.488
		c0,1.915,0.702,2.873,2.106,2.873c1.439,0,2.159-0.937,2.159-2.809c0-0.957-0.174-1.669-0.523-2.133
		c-0.35-0.465-0.88-0.696-1.593-0.696C43.854,76.724,43.137,77.645,43.137,79.488z"/>
	<path fill="#1A171B" d="M54.444,76.54l-0.173,0.788l-0.097,0.021c-0.482-0.403-1.037-0.604-1.663-0.604
		c-0.685,0-1.21,0.235-1.577,0.707s-0.551,1.161-0.551,2.068c0,0.914,0.184,1.613,0.551,2.095c0.367,0.482,0.886,0.724,1.556,0.724
		c0.662,0,1.264-0.219,1.804-0.658l0.107,0.054l-0.075,0.821c-0.627,0.345-1.264,0.518-1.912,0.518c-0.929,0-1.648-0.3-2.16-0.901
		c-0.511-0.602-0.767-1.46-0.767-2.576c0-1.145,0.267-2.026,0.8-2.646c0.532-0.619,1.288-0.929,2.268-0.929
		C53.282,76.021,53.912,76.194,54.444,76.54z"/>
	<path fill="#1A171B" d="M61.433,82.998h-0.875l0.064-2.084l-0.011-1.037l-1.943-0.032l-1.75,0.032l-0.011,0.961l0.043,2.16h-0.874
		l0.054-2.084l-0.054-4.839h0.885l-0.032,3.046l1.814,0.032l1.857-0.032l-0.043-3.046h0.886L61.4,80.838L61.433,82.998z"/>
	<path fill="#1A171B" d="M67.718,82.998H63.83l0.054-2.084l-0.054-4.839h3.898l0.043,0.087l-0.064,0.669l-1.631-0.032l-1.372,0.021
		l-0.021,2.269l1.296,0.021l1.146-0.032l0.064,0.075l-0.075,0.67l-1.21-0.022l-1.231,0.012l-0.011,1.025l0.032,1.437l1.372,0.011
		l1.663-0.043l0.054,0.086L67.718,82.998z"/>
</g>
</svg>