<?xml version="1.0" encoding="utf-8"?>
<!-- Generator: Adobe Illustrator 15.1.0, SVG Export Plug-In . SVG Version: 6.00 Build 0)  -->
<!DOCTYPE svg PUBLIC "-//W3C//DTD SVG 1.1//EN" "http://www.w3.org/Graphics/SVG/1.1/DTD/svg11.dtd">
<svg version="1.1" id="Ebene_1" xmlns="http://www.w3.org/2000/svg" xmlns:xlink="http://www.w3.org/1999/xlink" x="0px" y="0px"
	 width="100px" height="100px" viewBox="0 0 100 100" enable-background="new 0 0 100 100" xml:space="preserve">
<g>
	<g>
		<path fill="#1A171B" d="M29.313,69.016l-2.152-6.407H27.04l-2.271,6.407h-1.432l-3.514-11.041H21.2l0.189,1.067l2.688,8.439h0.121
			l2.377-6.718l-0.93-2.79h1.412l0.258,1.188l2.721,8.32h0.105l2.998-8.371l0.258-1.138h1.309l-3.961,11.041h-1.432V69.016z"/>
		<path fill="#1A171B" d="M43.231,69.016H37.03l0.086-3.323l-0.086-7.718h6.217l0.07,0.138l-0.104,1.068l-2.602-0.052l-2.189,0.034
			L38.39,62.78l2.066,0.033l1.826-0.052l0.104,0.121l-0.119,1.067l-1.932-0.035l-1.963,0.019l-0.018,1.636l0.051,2.291l2.189,0.019
			l2.65-0.069l0.088,0.139L43.231,69.016z"/>
		<path fill="#1A171B" d="M52.274,59.181l-1.93-0.104h-1.119l-0.053,6.492l0.053,3.445h-1.396l0.104-3.324l-0.086-6.613h-1.119
			l-1.965,0.104l-0.086-0.139l0.104-1.067h7.494l0.102,0.138L52.274,59.181z"/>
		<path fill="#1A171B" d="M61.3,59.181l-1.93-0.104h-1.119l-0.053,6.492l0.053,3.445h-1.396l0.104-3.324l-0.086-6.613h-1.119
			l-1.965,0.104l-0.086-0.139l0.105-1.067H61.3l0.104,0.138L61.3,59.181z"/>
		<path fill="#1A171B" d="M70.151,69.016H63.95l0.088-3.323l-0.088-7.718h6.219l0.068,0.138l-0.104,1.068l-2.602-0.052l-2.188,0.034
			l-0.033,3.617l2.064,0.033l1.826-0.052l0.105,0.121l-0.121,1.067l-1.93-0.035l-1.965,0.019l-0.018,1.636l0.053,2.291l2.188,0.019
			l2.652-0.069l0.086,0.139L70.151,69.016z"/>
		<path fill="#1A171B" d="M80.177,68.688l-0.018,0.172c-0.414,0.162-0.838,0.266-1.273,0.312l-0.189-0.121
			c-0.941-1.412-1.787-2.79-2.533-4.134h-2.016v0.654l0.07,3.444h-1.396l0.086-3.323l-0.086-7.718l3.375-0.019
			c1.08,0,1.916,0.273,2.508,0.818c0.59,0.547,0.887,1.324,0.887,2.334c0,0.758-0.197,1.438-0.594,2.041
			c-0.396,0.604-0.957,1.071-1.68,1.404C78.075,65.807,79.028,67.185,80.177,68.688z M76.233,63.797
			c1.285-0.367,1.928-1.224,1.928-2.565c0-1.367-0.758-2.08-2.271-2.137l-1.672,0.051l-0.053,4.6L76.233,63.797z"/>
	</g>
	<g>
		<path fill="#FFFFFF" d="M67.888,25.217c0-2.296-1.861-4.157-4.158-4.157c-0.213,0-0.422,0.021-0.629,0.053
			c-0.662-0.898-1.795-1.494-3.084-1.494c-1.904,0-3.471,1.295-3.67,2.955c-1.598,0.024-2.885,1.324-2.885,2.926
			c0,1.615,1.311,2.926,2.928,2.926c0.039,0,0.078-0.004,0.117-0.005c0.398,1.04,1.402,1.78,2.586,1.78
			c1.057,0,1.973-0.592,2.439-1.459c0.637,0.397,1.391,0.633,2.197,0.633C66.026,29.372,67.888,27.513,67.888,25.217"/>
		<path fill="none" stroke="#1D1D1B" stroke-width="1.748" stroke-linecap="round" d="M68.64,24.966
			c0-2.296-1.861-4.157-4.158-4.157c-0.215,0-0.424,0.022-0.631,0.054c-0.66-0.898-1.793-1.494-3.084-1.494
			c-1.902,0-3.469,1.293-3.67,2.955c-1.596,0.024-2.883,1.322-2.883,2.924c0,1.617,1.311,2.928,2.928,2.928
			c0.039,0,0.076-0.005,0.117-0.006c0.396,1.041,1.402,1.779,2.584,1.779c1.057,0,1.975-0.59,2.441-1.459
			c0.639,0.399,1.391,0.633,2.195,0.633C66.776,29.122,68.64,27.262,68.64,24.966z"/>
		<path fill="#FFFFFF" d="M35.19,33.844h29.889H35.19z"/>
		
			<line fill="none" stroke="#1D1D1B" stroke-width="1.748" stroke-linecap="round" x1="35.19" y1="33.844" x2="65.077" y2="33.844"/>
		<path fill="#FFFFFF" d="M50.136,48.788V18.899V48.788z"/>
		
			<line fill="none" stroke="#1D1D1B" stroke-width="1.748" stroke-linecap="round" x1="50.134" y1="18.899" x2="50.134" y2="48.788"/>
		<g>
			<g>
				
					<line fill="none" stroke="#1D1D1B" stroke-width="1.748" stroke-linecap="round" x1="32.007" y1="43.895" x2="42.159" y2="43.895"/>
			</g>
			
				<line fill="none" stroke="#1D1D1B" stroke-width="1.748" stroke-linecap="round" x1="35.653" y1="47.522" x2="45.806" y2="47.522"/>
			<g>
				
					<line fill="none" stroke="#1D1D1B" stroke-width="1.748" stroke-linecap="round" x1="34.173" y1="40.267" x2="44.321" y2="40.267"/>
				<path fill="#1D1D1B" d="M46.778,41.139c0.482,0,0.873-0.39,0.873-0.872c0-0.48-0.391-0.871-0.873-0.871
					c-0.48,0-0.871,0.391-0.871,0.871C45.907,40.749,46.298,41.139,46.778,41.139"/>
			</g>
		</g>
		<polygon fill="#1A171B" stroke="#000000" stroke-linecap="round" stroke-linejoin="round" stroke-miterlimit="10" points="
			61.829,41.866 60.362,41.866 61.054,40.905 63.274,38.198 60.304,38.198 57.532,43.88 58.376,43.858 59.261,43.856 58.948,44.684 
			57.542,48.38 63.034,41.866 		"/>
		<path fill="#FFFFFF" d="M39.081,26.969c1.354,0,2.449-1.097,2.449-2.45c0-1.352-1.098-2.447-2.449-2.447
			c-1.354,0-2.449,1.096-2.449,2.447C36.632,25.872,37.729,26.969,39.081,26.969"/>
		<circle fill="none" stroke="#1D1D1B" stroke-width="1.748" stroke-linecap="round" cx="39.081" cy="24.52" r="2.449"/>
		<path fill="#FFFFFF" d="M43.638,24.521h2.312H43.638z"/>
		
			<line fill="none" stroke="#1D1D1B" stroke-width="1.748" stroke-linecap="round" x1="44.485" y1="24.519" x2="46.802" y2="24.519"/>
		<path fill="#FFFFFF" d="M32.212,24.521h2.312H32.212z"/>
		<g>
			
				<line fill="none" stroke="#1D1D1B" stroke-width="1.748" stroke-linecap="round" x1="31.362" y1="24.519" x2="33.675" y2="24.519"/>
		</g>
		<path fill="#FFFFFF" d="M39.081,19.964v-2.312V19.964z"/>
		<g>
			
				<line fill="none" stroke="#1D1D1B" stroke-width="1.748" stroke-linecap="round" x1="39.081" y1="19.114" x2="39.081" y2="16.801"/>
		</g>
		<g>
			
				<line fill="none" stroke="#1D1D1B" stroke-width="1.748" stroke-linecap="round" x1="39.081" y1="31.425" x2="39.081" y2="29.962"/>
		</g>
		<line fill="none" x1="42.304" y1="21.298" x2="43.94" y2="19.661"/>
		<line fill="none" x1="34.224" y1="29.376" x2="35.858" y2="27.741"/>
		<line fill="none" x1="35.858" y1="21.298" x2="34.224" y2="19.661"/>
		<line fill="none" x1="43.938" y1="29.376" x2="42.302" y2="27.741"/>
		
			<line fill="none" stroke="#1D1D1B" stroke-width="1.748" stroke-linecap="round" x1="42.903" y1="28.341" x2="44.54" y2="29.978"/>
		<path fill="#FFFFFF" d="M34.224,19.663l1.635,1.634L34.224,19.663z"/>
		<g>
			
				<line fill="none" stroke="#1D1D1B" stroke-width="1.748" stroke-linecap="round" x1="33.624" y1="19.061" x2="35.259" y2="20.696"/>
		</g>
		<path fill="#FFFFFF" d="M42.304,21.299l1.637-1.636L42.304,21.299z"/>
		<g>
			
				<line fill="none" stroke="#1D1D1B" stroke-width="1.748" stroke-linecap="round" x1="42.903" y1="20.698" x2="44.54" y2="19.062"/>
		</g>
		<path fill="#FFFFFF" d="M34.226,29.377l1.635-1.636L34.226,29.377z"/>
		
			<line fill="none" stroke="#1D1D1B" stroke-width="1.748" stroke-linecap="round" x1="33.624" y1="29.978" x2="35.259" y2="28.343"/>
	</g>
</g>
</svg>
