<?xml version="1.0" encoding="utf-8"?>
<!-- Generator: Adobe Illustrator 15.1.0, SVG Export Plug-In . SVG Version: 6.00 Build 0)  -->
<!DOCTYPE svg PUBLIC "-//W3C//DTD SVG 1.1//EN" "http://www.w3.org/Graphics/SVG/1.1/DTD/svg11.dtd">
<svg version="1.1" id="Ebene_1" xmlns="http://www.w3.org/2000/svg" xmlns:xlink="http://www.w3.org/1999/xlink" x="0px" y="0px"
	 width="100px" height="100px" viewBox="0 0 100 100" enable-background="new 0 0 100 100" xml:space="preserve">
<g>
	<g>
		<path fill="#1A171B" d="M12.674,69.052h-1.395l0.086-3.324l-0.086-7.717h1.412l-0.086,7.596L12.674,69.052z M19.1,68.759
			l-0.018,0.173c-0.355,0.104-0.793,0.193-1.309,0.275l-0.156-0.086c-1.859-2.113-3.443-4.061-4.754-5.84v-0.104l3.688-4.202
			l0.672-0.965h1.566l-4.461,5.186C15.9,65.228,17.492,67.082,19.1,68.759z"/>
		<path fill="#1A171B" d="M27.746,69.052l-0.258-1.103l-0.621-1.896l-2.48-0.052l-2.238,0.052l-0.672,1.825l-0.275,1.172h-1.379
			l4.049-11.041h1.604l3.686,11.041L27.746,69.052L27.746,69.052z M24.697,59.44h-0.121l-1.998,5.443l1.93,0.034l1.98-0.034
			L24.697,59.44z"/>
		<path fill="#1A171B" d="M37.133,69.052h-5.443l0.086-3.324l-0.086-7.717h1.412l-0.086,7.596l0.053,2.291h4.082l0.104,0.121
			L37.133,69.052z"/>
		<path fill="#1A171B" d="M45.711,69.052H39.51l0.086-3.324l-0.086-7.717h6.219l0.068,0.138l-0.104,1.068l-2.602-0.053l-2.189,0.035
			l-0.033,3.616l2.066,0.034l1.826-0.053l0.104,0.121l-0.121,1.067l-1.93-0.034l-1.963,0.019l-0.018,1.636l0.053,2.291l2.188,0.018
			l2.652-0.068l0.086,0.138L45.711,69.052z"/>
		<path fill="#1A171B" d="M56.906,69.052h-1.447l-5.701-8.837h-0.104l-0.016,5.201l0.051,3.636h-1.291l0.086-3.272l-0.053-7.769
			h1.445l5.686,8.836h0.121l-0.02-8.767l1.311-0.104l-0.105,7.837L56.906,69.052z"/>
		<path fill="#1A171B" d="M68.377,59.285c0.84,0.896,1.258,2.183,1.258,3.858c0,1.94-0.453,3.429-1.361,4.461
			c-0.906,1.034-2.209,1.552-3.908,1.552c-1.127,0-2.32-0.035-3.584-0.104h-0.018l0.088-3.324l-0.088-7.717h0.018l3.98-0.069
			C66.334,57.941,67.539,58.39,68.377,59.285z M67.283,66.855c0.627-0.764,0.939-1.902,0.939-3.419c0-2.894-1.189-4.341-3.564-4.341
			c-0.725,0-1.557,0.023-2.498,0.068l-0.07,6.441l0.053,2.291C62.945,67.965,63.762,68,64.588,68
			C65.76,68,66.658,67.619,67.283,66.855z"/>
		<path fill="#1A171B" d="M78.678,69.052h-6.201l0.088-3.324l-0.088-7.717h6.219l0.068,0.138l-0.104,1.068l-2.6-0.053l-2.189,0.035
			l-0.033,3.616l2.064,0.034l1.826-0.053l0.104,0.121l-0.119,1.067l-1.93-0.034l-1.965,0.019l-0.018,1.636l0.053,2.291l2.188,0.018
			l2.652-0.068l0.086,0.138L78.678,69.052z"/>
		<path fill="#1A171B" d="M88.721,68.725l-0.018,0.172c-0.414,0.161-0.838,0.266-1.275,0.311l-0.189-0.121
			c-0.941-1.412-1.785-2.789-2.531-4.133h-2.016v0.653l0.068,3.445h-1.395l0.086-3.324l-0.086-7.717l3.375-0.019
			c1.08,0,1.916,0.273,2.508,0.818c0.59,0.546,0.887,1.324,0.887,2.334c0,0.758-0.199,1.438-0.594,2.041
			c-0.396,0.604-0.957,1.07-1.68,1.404C86.619,65.843,87.572,67.221,88.721,68.725z M84.775,63.832
			c1.285-0.367,1.93-1.224,1.93-2.565c0-1.367-0.758-2.079-2.273-2.136l-1.672,0.051l-0.051,4.6L84.775,63.832z"/>
	</g>
	<g>
		<path fill="#1A171B" d="M40.291,82.7h-0.875l0.064-2.084l-0.01-1.037l-1.945-0.032l-1.75,0.032l-0.01,0.962l0.043,2.159h-0.875
			l0.055-2.084l-0.055-4.839h0.887l-0.031,3.046l1.812,0.031l1.857-0.031l-0.043-3.046h0.887l-0.045,4.764L40.291,82.7z"/>
		<path fill="#1A171B" d="M46.578,82.7h-3.889l0.053-2.084l-0.053-4.839h3.898l0.043,0.087l-0.066,0.67l-1.629-0.032l-1.373,0.021
			l-0.021,2.269l1.297,0.021l1.146-0.031l0.064,0.074l-0.076,0.67l-1.211-0.021l-1.229,0.012l-0.012,1.025l0.031,1.438l1.373,0.01
			l1.662-0.043l0.053,0.086L46.578,82.7z"/>
		<path fill="#1A171B" d="M53.24,80.076c0.014,0.85-0.211,1.512-0.67,1.987c-0.461,0.476-1.117,0.713-1.967,0.713
			c-0.812,0-1.438-0.228-1.873-0.681C48.295,81.641,48.086,81,48.1,80.172l0.01-0.938l-0.01-3.456h0.854l-0.033,4.288
			c-0.014,1.303,0.568,1.955,1.75,1.955c1.195,0,1.785-0.617,1.771-1.849l-0.045-4.396h0.865l-0.012,3.521L53.24,80.076z"/>
		<path fill="#1A171B" d="M59.428,76.534l-1.209-0.065h-0.703l-0.031,4.072l0.031,2.159h-0.875l0.066-2.084l-0.057-4.147h-0.701
			l-1.229,0.065l-0.055-0.088l0.064-0.669h4.697l0.062,0.087L59.428,76.534z"/>
		<path fill="#1A171B" d="M65.002,82.7h-3.889l0.055-2.084l-0.055-4.839h3.898l0.043,0.087l-0.064,0.67l-1.631-0.032l-1.371,0.021
			l-0.021,2.269l1.297,0.021l1.143-0.031l0.066,0.074l-0.076,0.67l-1.209-0.021l-1.23,0.012l-0.012,1.025l0.033,1.438l1.371,0.01
			l1.662-0.043l0.055,0.086L65.002,82.7z"/>
	</g>
	<g>
		<circle fill="#1D1D1B" cx="42.867" cy="34.606" r="1.09"/>
		<circle fill="#1D1D1B" cx="46.684" cy="34.606" r="1.09"/>
		<circle fill="#1D1D1B" cx="50.502" cy="34.606" r="1.09"/>
		<circle fill="#1D1D1B" cx="54.318" cy="34.606" r="1.09"/>
		<circle fill="#1D1D1B" cx="42.867" cy="38.424" r="1.091"/>
		<circle fill="#1D1D1B" cx="46.684" cy="38.424" r="1.091"/>
		<circle fill="#1D1D1B" cx="50.502" cy="38.424" r="1.091"/>
		<path fill="#1D1D1B" d="M59.91,25.089h-3.041c-0.002-0.639-0.002-1.307-0.004-1.523c0.008-0.551-0.381-1.024-0.877-1.056
			c-0.496-0.028-0.916,0.38-0.971,0.923l-0.02,0.373c0,0.156,0,0.719,0,1.283H44.742c0-0.639-0.002-1.307-0.004-1.523
			c0.01-0.551-0.379-1.024-0.877-1.056c-0.496-0.028-0.916,0.38-0.971,0.923l-0.018,0.373c0,0.156,0,0.719,0,1.283h-2.779
			c-1.092,0-2.715,0.723-2.715,2.713v2.562v1.688v11.965c0,1.092,0.725,2.713,2.715,2.713h19.814c1.09,0,2.713-0.723,2.713-2.713
			V32.052v-1.688v-2.562C62.623,26.711,61.902,25.089,59.91,25.089z M60.943,44.017c0,0.877-0.65,1.023-1.039,1.033H40.096
			c-0.879,0-1.025-0.652-1.033-1.033V32.052h21.883v11.965H60.943z M39.062,30.364v-2.562c0-0.879,0.652-1.023,1.033-1.033h2.779
			c0,0.153,0,0.336,0,0.496l0.018,0.372c0.055,0.544,0.475,0.95,0.971,0.923c0.498-0.031,0.887-0.504,0.877-1.056
			c0.002-0.245,0.004-0.522,0.004-0.735H55c0,0.153,0,0.336,0,0.496l0.02,0.372c0.055,0.544,0.475,0.95,0.971,0.923
			c0.496-0.031,0.885-0.504,0.877-1.056c0.002-0.245,0.002-0.522,0.004-0.735h3.041c0.879,0,1.025,0.653,1.033,1.033v2.562H39.062z"
			/>
	</g>
</g>
</svg>